Coordinates
version=1
nRows=27
nColumns=12
inDegrees=yes

Units are S.I. units (second, meters, Newtons, ...)
Angles are in degrees

endheader
time	SC_y	SC_z	SC_x	AC_y	AC_z	AC_x	GH_y	GH_z	GH_yy	EL_x	PS_y
       0.0              -32.95          23.06          63.63          46.58         -2.208           10.5         -13.37         -7.147           93.8          34.26          96.68
  0.006951              -32.95          23.06          63.63          46.58         -2.208          10.49         -13.36         -7.146          93.81          34.26          96.68
    0.0139              -32.95          23.06          63.62          46.58         -2.209          10.49         -13.35         -7.145          93.82          34.26          96.68
   0.02085              -32.95          23.06          63.62          46.57          -2.21          10.48         -13.34         -7.144          93.82          34.27          96.68
    0.0278              -32.94          23.06          63.62          46.57          -2.21          10.48         -13.33         -7.143          93.83          34.27          96.68
   0.03475              -32.94          23.06          63.61          46.57         -2.211          10.48         -13.31         -7.142          93.84          34.27          96.68
    0.0417              -32.94          23.06          63.61          46.57         -2.212          10.47          -13.3         -7.141          93.85          34.27          96.68
   0.04865              -32.94          23.06          63.61          46.57         -2.213          10.47         -13.28         -7.139          93.86          34.28          96.68
    0.0556              -32.93          23.06           63.6          46.56         -2.214          10.46         -13.27         -7.138          93.87          34.28          96.68
   0.06256              -32.93          23.06           63.6          46.56         -2.215          10.45         -13.25         -7.136          93.88          34.28          96.67
   0.06951              -32.92          23.05          63.59          46.56         -2.216          10.45         -13.23         -7.135          93.89          34.29          96.67
   0.07646              -32.92          23.05          63.59          46.56         -2.217          10.44         -13.21         -7.133          93.91          34.29          96.67
   0.08341              -32.92          23.05          63.58          46.55         -2.218          10.43         -13.18         -7.131          93.92          34.29          96.67
   0.09036              -32.91          23.05          63.58          46.55         -2.219          10.42         -13.16         -7.129          93.94           34.3          96.67
   0.09731               -32.9          23.05          63.57          46.55         -2.221          10.41         -13.13         -7.126          93.95           34.3          96.67
    0.1043               -32.9          23.05          63.57          46.54         -2.222           10.4         -13.11         -7.124          93.97          34.31          96.67
    0.1112              -32.89          23.05          63.56          46.54         -2.224          10.39         -13.07         -7.121          93.99          34.32          96.67
    0.1182              -32.89          23.04          63.55          46.54         -2.226          10.38         -13.04         -7.118          94.01          34.32          96.67
    0.1251              -32.88          23.04          63.54          46.53         -2.228          10.37          -13.0         -7.115          94.04          34.33          96.66
    0.1321              -32.87          23.04          63.53          46.53          -2.23          10.35         -12.96         -7.111          94.06          34.34          96.66
     0.139              -32.86          23.04          63.52          46.52         -2.232          10.34         -12.92         -7.107          94.09          34.34          96.66
     0.146              -32.85          23.03          63.51          46.51         -2.235          10.32         -12.87         -7.103          94.12          34.35          96.66
    0.1529              -32.84          23.03           63.5          46.51         -2.238           10.3         -12.82         -7.098          94.16          34.36          96.66
    0.1599              -32.83          23.03          63.48           46.5         -2.241          10.28         -12.76         -7.093          94.19          34.37          96.65
    0.1668              -32.81          23.02          63.47          46.49         -2.245          10.26         -12.69         -7.087          94.24          34.39          96.65
    0.1738               -32.8          23.02          63.45          46.48         -2.249          10.23         -12.62         -7.081          94.28           34.4          96.65
    0.1807              -32.78          23.01          63.43          46.47         -2.253           10.2         -12.54         -7.073          94.34          34.42          96.64
